<svg data-v-0dd9719b="" version="1.0" xmlns="http://www.w3.org/2000/svg" xmlns:xlink="http://www.w3.org/1999/xlink" width="100%" height="100%" viewBox="0 0 340.000000 250.000000" preserveAspectRatio="xMidYMid meet" color-interpolation-filters="sRGB" style="margin: auto;"> <rect data-v-0dd9719b="" x="0" y="0" width="100%" height="100%" fill="transparent" fill-opacity="1" class="background"></rect> <rect data-v-0dd9719b="" x="0" y="0" width="100%" height="100%" fill="url(#watermark)" fill-opacity="1" class="watermarklayer"></rect> <g data-v-0dd9719b="" fill="#EEF1F4" class="iconlinesvg-g iconlinesvg" transform="translate(92.5,100.40817260742188)"><g class="tp-name"><g transform="translate(0, 0)"><g><g class="imagesvg"><g><rect fill="#EEF1F4" fill-opacity="0" stroke-width="2" x="0" y="0" width="33.835895705846184" height="49.18365536135793" class="image-rect"></rect> <svg x="0" y="0" width="33.835895705846184" height="49.18365536135793" filtersec="colorsb9279985176" class="image-svg-svg primary" style="overflow: visible;"><svg xmlns="http://www.w3.org/2000/svg" viewBox="0 0 44.81999969482422 65.1500015258789"><title>F</title><g id="34e78470-89df-428b-97a9-8c455a2b384e" data-name="圖層 2"><g id="590168d6-23f3-4118-a863-a49bb1dd4db3" data-name="栝鍣 1"><rect width="18.36" height="65.15" fill="#F8D458"></rect><rect x="21.84" y="23.39" width="16.29" height="18.36" fill="#F8D458"></rect><rect x="21.84" width="22.98" height="13.28" fill="#F8D458"></rect></g></g></svg></svg> <!----></g></g></g></g><g transform="translate(37, 4.098663618178964)"><g data-gra="path-name" fill="#EEF1F4" transform="scale(1)"><path d="M7.85-7.85L7.85-40.99L0-40.99L0 0L20.80 0L20.80-7.85L7.85-7.85Z" transform="translate(0, 40.986328125)"></path></g></g><g transform="translate(61, 4.098663618178964)"><g data-gra="path-name" fill="#EEF1F4" transform="scale(1)"><path d="M0-40.99L0 0L7.85 0L7.85-40.99L0-40.99Z" transform="translate(0, 40.986328125)"></path></g></g><g transform="translate(72, 4.098663618178964)"><g data-gra="path-name" fill="#EEF1F4" transform="scale(1)"><path d="M17.37-20.48L26.16-40.99L17.58-40.99L13.10-30.53L8.61-40.99L0-40.99L8.79-20.48L0 0L8.58 0L13.10-10.46L17.58 0L26.16 0L17.37-20.48Z" transform="translate(0, 40.986328125)"></path></g></g><g transform="translate(102, 4.098663618178964)"><g data-gra="path-name" fill="#EEF1F4" transform="scale(1)"><path d="M20.83-40.99L0-40.99L0 0L7.85 0L7.85-16.58L18.22-16.58L18.22-24.40L7.85-24.40L7.85-33.13L20.83-33.13L20.83-40.99Z" transform="translate(0, 40.986328125)"></path></g></g><g transform="translate(126, 4.098663618178964)"><g data-gra="path-name" fill="#EEF1F4" transform="scale(1)"><path d="M21.24-40.99L14.30-24.17L7.76-40.99L0-40.99L10.28-14.62L10.28 0L18.11 0L18.11-14.62L29.00-40.99L21.24-40.99Z" transform="translate(0, 40.986328125)"></path></g></g></g> <!----></g><defs v-gra="od"></defs></svg>